<?xml version="1.0" encoding="UTF-8" standalone="no"?>
<!DOCTYPE svg PUBLIC "-//W3C//DTD SVG 1.1//EN" "http://www.w3.org/Graphics/SVG/1.1/DTD/svg11.dtd">
<svg width="100%" height="100%" viewBox="0 0 613 157" version="1.1" xmlns="http://www.w3.org/2000/svg" xmlns:xlink="http://www.w3.org/1999/xlink" xml:space="preserve" xmlns:serif="http://www.serif.com/" style="fill-rule:evenodd;clip-rule:evenodd;stroke-linejoin:round;stroke-miterlimit:2;">
    <g transform="matrix(0.673685,0,0,0.399344,-350.194,-109.908)">
        <path d="M903.7,648.93C903.934,601.157 903.7,371.641 903.7,371.641C903.7,371.641 945.089,372.141 955.245,371.641C958.791,371.466 960.974,366.23 961.079,362.641C961.458,349.648 960.865,306.77 961.079,293.688C961.137,290.095 958.817,284.626 955.245,284.688C926.399,285.188 814.226,284.369 788.061,284.688C784.502,284.731 782.297,291.281 782.297,293.688L782.297,362.641C782.297,366.228 785.342,371.651 787.469,371.641C797.624,371.592 839.675,371.641 839.675,371.641L839.675,648.93C839.675,654.154 842.001,657.93 845.097,657.93L898.148,657.93C901.86,657.93 903.674,654.191 903.7,648.93Z" style="fill:rgb(211,209,198);fill-rule:nonzero;"/>
    </g>
    <g transform="matrix(0.673685,0,0,0.399344,-35.2835,-109.908)">
        <path d="M903.7,648.93C903.934,601.157 903.7,371.641 903.7,371.641C903.7,371.641 945.089,372.141 955.245,371.641C958.791,371.466 960.974,366.23 961.079,362.641C961.458,349.648 960.865,306.77 961.079,293.688C961.137,290.095 958.817,284.626 955.245,284.688C926.399,285.188 814.226,284.369 788.061,284.688C784.502,284.731 782.297,291.281 782.297,293.688L782.297,362.641C782.297,366.228 785.342,371.651 787.469,371.641C797.624,371.592 839.675,371.641 839.675,371.641L839.675,648.93C839.675,654.154 842.001,657.93 845.097,657.93L898.148,657.93C901.86,657.93 903.674,654.191 903.7,648.93Z" style="fill:rgb(211,209,198);fill-rule:nonzero;"/>
    </g>
    <g transform="matrix(0.673685,0,0,0.399344,-350.194,-109.908)">
        <path d="M1034.4,657.93C1039.05,657.93 1040.88,652.318 1040.87,644.482C1040.76,583.726 1040.87,350.428 1040.87,294.75C1040.87,286.721 1039.16,284.688 1034.4,284.688C1026.05,284.688 992.266,284.865 983.915,284.688C978.68,284.576 976.846,288.649 976.846,294.75C976.853,350.3 976.846,583.906 976.846,644.482C976.846,651.515 979.765,657.253 983.915,657.93C991.622,659.187 1025.02,657.929 1034.4,657.93Z" style="fill:rgb(211,209,198);fill-rule:nonzero;"/>
    </g>
    <g transform="matrix(0.673685,0,0,0.399344,-350.194,-109.908)">
        <path d="M1158.73,284.688C1158.73,284.688 1083.78,284.603 1066.97,284.612C1061.12,284.615 1059.85,288.719 1059.85,296.741C1059.85,296.741 1059.95,580.992 1059.85,641.201C1059.84,651.952 1063.56,658.045 1069.93,657.93C1078.5,657.774 1103.64,657.838 1114.39,657.897C1122.95,657.943 1123.8,647.62 1123.72,641.201C1123.49,624.706 1123.72,552.93 1123.72,552.93L1157.92,552.93C1212.54,552.93 1239.12,492.227 1239.12,419.766C1239.12,348.672 1213.35,284.688 1158.73,284.688ZM1174.45,419.766C1174.45,456.133 1161,474.453 1140.25,474.453L1123.39,474.453L1123.39,365.078L1141.87,365.078C1161.64,365.078 1174.45,384.219 1174.45,419.766Z" style="fill:rgb(211,209,198);fill-rule:nonzero;"/>
    </g>
    <g transform="matrix(0.33335,0,0,0.33335,-27.8757,-92.9993)">
        <path d="M156.136,683.977C111.456,641.156 83.623,580.892 83.623,514.18C83.623,384.372 189.011,278.984 318.82,278.984C425.318,278.984 515.377,349.922 544.288,447.083C545.744,451.975 543.723,457.234 539.366,459.893L467.814,503.563C464.666,505.484 460.778,505.74 457.406,504.25C454.033,502.76 451.605,499.711 450.907,496.091C438.946,434.065 384.315,387.161 318.82,387.161C244.575,387.161 184.298,447.438 184.298,521.683C184.298,564.573 204.418,602.8 235.72,627.442C238.615,629.72 240.211,633.272 239.992,636.949C239.773,640.627 237.767,643.964 234.623,645.883L169.78,685.458C165.423,688.117 159.821,687.509 156.136,683.977ZM553.782,503.601C553.937,507.108 554.016,510.635 554.016,514.18C554.016,524.382 553.365,534.432 552.102,544.292C551.668,547.679 549.719,550.686 546.804,552.465L248.609,734.458C245.696,736.236 242.133,736.595 238.924,735.435C226.045,730.778 213.688,725.029 201.964,718.299C198.517,716.32 196.37,712.668 196.316,708.693C196.263,704.719 198.311,701.011 201.704,698.94L536.683,494.497C540.079,492.424 544.318,492.3 547.83,494.17C551.342,496.04 553.605,499.626 553.782,503.601ZM528.31,621.135C489.349,697.24 410.124,749.377 318.82,749.377L318.177,749.376C313.141,749.363 308.729,746.005 307.373,741.156C306.017,736.307 308.048,731.147 312.346,728.524L512.436,606.406C516.736,603.782 522.255,604.336 525.948,607.762C529.64,611.188 530.605,616.651 528.31,621.135Z" style="fill:rgb(250,122,68);"/>
    </g>
</svg>
